<svg xmlns="http://www.w3.org/2000/svg" width="117" height="54" viewBox="0 0 117 54"><g><g><path fill="#fff" d="M46.726 52.469v-4.247l-3.079 4.207-3.107-4.22v4.26h-1.532V43.52l4.639 6.323 4.612-6.323v8.949zm-14.232-7.395a2.994 2.994 0 0 0-2.607 1.493 2.973 2.973 0 0 0 0 2.994c.263.454.64.831 1.095 1.093a3.04 3.04 0 0 0 3.024 0c.453-.26.83-.635 1.095-1.086a2.998 2.998 0 0 0 0-3.006 3.002 3.002 0 0 0-1.099-1.085 2.951 2.951 0 0 0-1.512-.401zm0 7.485a4.573 4.573 0 0 1-3.941-2.24 4.43 4.43 0 0 1 0-4.505 4.547 4.547 0 0 1 1.662-1.635 4.603 4.603 0 0 1 4.558 0c.686.391 1.26.955 1.662 1.635a4.43 4.43 0 0 1 0 4.506 4.54 4.54 0 0 1-1.662 1.635c-.693.4-1.48.608-2.279.601zm-9.607-.01a4.451 4.451 0 0 1-2.278-.609 4.556 4.556 0 0 1-1.656-1.641 4.465 4.465 0 0 1 0-4.5 4.554 4.554 0 0 1 3.934-2.237 4.584 4.584 0 0 1 1.841.382c.581.25 1.102.622 1.526 1.091l-1.136 1a3.073 3.073 0 0 0-1.02-.723 3.009 3.009 0 0 0-3.818 1.239 2.971 2.971 0 0 0 0 2.988c.264.456.644.836 1.1 1.1a2.979 2.979 0 0 0 2.8.114c.403-.195.76-.473 1.046-.817l1.205.938a4.478 4.478 0 0 1-1.574 1.232 4.533 4.533 0 0 1-1.971.442zm-7.677-.777c0-.185.076-.363.212-.489a.706.706 0 0 1 1 0 .684.684 0 0 1 .007.985.737.737 0 0 1-1.012 0 .666.666 0 0 1-.206-.5z"/></g><g><path fill="#fff" d="M86.53 32.699a3.02 3.02 0 0 1 1.073.95 2.128 2.128 0 0 1 .11 2.284 2.713 2.713 0 0 1-.8.879 3.57 3.57 0 0 1-1.058.515 4.315 4.315 0 0 1-2.473 0 3.564 3.564 0 0 1-1.06-.515 2.43 2.43 0 0 1-.898-1.126l1.366-.763a.687.687 0 0 0 .15.388c.084.11.185.204.3.28.194.134.409.236.635.3a2.646 2.646 0 0 0 1.49 0c.226-.064.44-.166.635-.3a.918.918 0 0 0 .451-.71.762.762 0 0 0-.177-.468 1.487 1.487 0 0 0-.479-.388 4.244 4.244 0 0 0-1.284-.281 5.6 5.6 0 0 1-1.697-.39c-.463-.198-.86-.523-1.149-.937a2.271 2.271 0 0 1-.409-1.3c0-.37.097-.732.28-1.052.196-.346.464-.645.785-.878.323-.23.68-.404 1.06-.516a4.32 4.32 0 0 1 2.473 0c.379.112.737.287 1.059.516.411.28.73.676.915 1.139l-1.38.777a.933.933 0 0 0-.451-.7 2.23 2.23 0 0 0-.638-.297 2.641 2.641 0 0 0-1.49 0 2.23 2.23 0 0 0-.635.295.92.92 0 0 0-.451.71c.006.183.073.36.191.5.14.174.324.306.534.382.167.068.34.118.519.147.2.036.433.071.699.107.62.05 1.23.199 1.803.442zm-12.706-4.102h5.703v1.514h-4.154v2.13h3.125v1.514h-3.125v2.157h4.154v1.5h-5.703zm-8.864 0h6.938v1.506h-2.709v7.3h-1.533v-7.3h-2.7v-1.514zm-4.173 3.649l-1.154 2.446h2.254zm-1.863 3.966l-.575 1.206h-1.7l4.174-8.825 3.969 8.825h-1.683l-.548-1.206zm-5.846-7.615h1.536v8.805h-1.536zm-8.088 0h1.547v7.307h4.146v1.498H44.99zm-4.215 0h1.537v8.805h-1.537zm-8.019 0h5.679v1.514h-4.146v2.13h3.134v1.514h-3.134v3.657h-1.533zm-7.869 0h5.68v1.514H26.42v2.13h3.134v1.514H26.42v3.657h-1.533zm-5.883 3.654l-1.151 2.451h2.245zm-1.859 3.96l-.575 1.207h-1.7l4.174-8.825 3.969 8.825h-1.684l-.547-1.206z"/></g><g><path fill="#fff" d="M.83.5h1.313V54H.83z"/></g><g><path fill="#fff" d="M107.49 9.232l-2.723 5.275h5.316zm-4.419 8.55l-1.364 2.609H97.68l9.905-19.071 9.418 19.071h-3.986l-1.3-2.609zm-22.468-5.3v7.913h-3.64V1.322h3.64v7.883h8.931V1.322h3.637l.032 19.072h-3.67v-7.912zm-15.78-2.754a4.15 4.15 0 0 0 2.695-.84c.6-.375.968-1.03.974-1.739a2.121 2.121 0 0 0-.974-1.739 4.339 4.339 0 0 0-2.695-.812h-4.32v5.13zm-7.962 10.666V1.322h7.957a8.972 8.972 0 0 1 2.744.42c.847.264 1.643.67 2.354 1.2a6.157 6.157 0 0 1 1.657 1.927 4.752 4.752 0 0 1 0 4.565c-.42.75-.982 1.41-1.657 1.942a7.842 7.842 0 0 1-2.354 1.2 8.959 8.959 0 0 1-2.744.42h-4.315l.033 7.391h-3.67zm-18.835 0V1.322h3.669v15.826h9.84v3.246zM24.061 9.235L21.333 14.5h5.326zm-4.41 8.55l-1.364 2.609H14.26l9.905-19.071 9.418 19.071h-4l-1.3-2.609z"/></g></g></svg>