<svg xmlns="http://www.w3.org/2000/svg" width="86.832" height="42.499" viewBox="0 0 86.832 42.499"><g transform="translate(-1944.549 -1896.496)"><g transform="translate(1945.137 1896.496)"><g transform="translate(0 0)"><g transform="translate(0 0)"><path d="M25.567,502.7l0,.01,0,.011a4.211,4.211,0,0,0,3.6,2.423,4.144,4.144,0,0,0,4.439-3.854,3.969,3.969,0,0,0-.374-1.926l-4.118-10.3a9.182,9.182,0,0,0,5.517-8.111,8.5,8.5,0,0,0-2.752-7.13,13.217,13.217,0,0,0-8.166-2.868l-6.981-.525h-.012a4.032,4.032,0,0,0-2.941.837,3.808,3.808,0,0,0-1.2,2.774l-1.235,22.049c-.025.443-.092.874-.159,1.305l-.009.06a7.828,7.828,0,0,0-.13,1.3,1.8,1.8,0,0,0,.453,1.256,2.094,2.094,0,0,0,1.445.552,4.3,4.3,0,0,0,4.58-3.995l.326-5.827,2.924.163Zm-6.95-25.44,3.141.175a5.616,5.616,0,0,1,2.965.8,2.835,2.835,0,0,1,1.016,2.7,2.772,2.772,0,0,1-1.306,2.515,5.664,5.664,0,0,1-3.038.471l-3.141-.175Z" transform="translate(-11.056 -463.245)" fill="#00beff" stroke="#00beff" stroke-width="1.177"/><path d="M39.667,502.22c3.314.785,6.368-.849,8.852-3.912s4.492-7.647,5.785-13.08c1.254-5.271,1.562-10.2.761-14.035s-2.752-6.688-6.1-7.48c-3.315-.785-6.353.854-8.82,3.912s-4.454,7.63-5.739,13.03c-1.269,5.334-1.581,10.285-.788,14.113S36.347,501.435,39.667,502.22Zm2.459-9.912a1.345,1.345,0,0,1-.889-.757,5.147,5.147,0,0,1-.471-2.031,26.249,26.249,0,0,1,.91-7.28,25.676,25.676,0,0,1,2.41-6.747,5.1,5.1,0,0,1,1.32-1.585,1.341,1.341,0,0,1,1.129-.276,1.361,1.361,0,0,1,.9.766,5.159,5.159,0,0,1,.47,2.032,25.806,25.806,0,0,1-.89,7.141,26.337,26.337,0,0,1-2.437,6.861,5.126,5.126,0,0,1-1.324,1.6A1.338,1.338,0,0,1,42.126,492.308Z" transform="translate(-10.184 -463.518)" fill="#ff8841"/><path d="M73.207,494.509h0L73.2,494.5,68.29,486.59l2.633-3.666.008-.011.007-.011a4.121,4.121,0,0,0,.711-2.5,3.556,3.556,0,0,0-3.533-3.507,3.188,3.188,0,0,0-2.523,1.463l-4.08,6.08-.647-9.106a3.988,3.988,0,1,0-7.924.429v.005L54.3,497.488v0a3.986,3.986,0,1,0,7.924-.427l-.163-3.021.97-1.362,3.932,6.457v0a3.7,3.7,0,0,0,3.355,1.867,3.979,3.979,0,0,0,3.552-4.367A4.658,4.658,0,0,0,73.207,494.509Z" transform="translate(-9.406 -463.216)" fill="#fec529"/><path d="M82.375,501.264a6.586,6.586,0,0,0,5.316-3.242,3.736,3.736,0,0,0,7.171-1.8l-1.931-22.46a3.974,3.974,0,1,0-7.916.677l1.391,16.178a5.167,5.167,0,0,1-.47,3.068,2.006,2.006,0,0,1-1.646,1.008,1.8,1.8,0,0,1-1.341-.411,3.593,3.593,0,0,1-.99-2.54L80.5,474.82a3.974,3.974,0,1,0-7.916.677l1.546,17.984a9.71,9.71,0,0,0,2.13,5.778C77.613,500.745,79.618,501.5,82.375,501.264Z" transform="translate(-8.632 -463.261)" fill="#29d37f"/></g></g></g></g></svg>