<?xml version="1.0" encoding="utf-8"?>
<!-- Generator: Adobe Illustrator 18.0.0, SVG Export Plug-In . SVG Version: 6.00 Build 0)  -->
<!DOCTYPE svg PUBLIC "-//W3C//DTD SVG 1.1//EN" "http://www.w3.org/Graphics/SVG/1.1/DTD/svg11.dtd">
<svg version="1.1" id="Layer_1" xmlns="http://www.w3.org/2000/svg" xmlns:xlink="http://www.w3.org/1999/xlink" x="0px" y="0px"
	 viewBox="0 0 841.9 595.3" enable-background="new 0 0 841.9 595.3" xml:space="preserve">
<rect x="28" y="25" fill="transparent" width="771.3" height="538.7"/>
<g>
	<g>
		<path fill="#FFFFFF" d="M305.5,204c0-0.1-0.1-0.1-0.2-0.2c-1.2-0.4-10.7-3-20.8-2.8c-0.4,0-6.7,0.2-7.1,0.3
			c-10.6,0.4-20.5,3.2-21.7,3.5c-0.1,0-0.1,0.1-0.2,0.2c-0.9,1.7-10.8,22.1-5.1,54.4c0,0.1,0.2,0.3,0.3,0.3h16.2
			c0.3,0,0.4,0.4,0.2,0.6l-4,2.3c-0.1,0.1-0.1,0.1-0.2,0.2l-1.2,25.1c0,0.2,0.2,0.4,0.5,0.3l42.8-25c0.1-0.1,0.1-0.1,0.2-0.2
			l1.2-25.1c0-0.2-0.2-0.4-0.5-0.3l-32.6,19c-0.2,0.1-0.4,0-0.5-0.2c-1.1-7.2-2.3-16.7-1.7-23.3c1.1-14.6,4.1-22.5,4.6-23.8
			c0-0.1,0.2-0.2,0.3-0.2l8.5-0.3c0.1,0,0.2,0.1,0.3,0.2c0.2,0.3,0.5,1.4,1,4.4c0.9,6.4,0.8,9.5,0.4,13.9c0,0.2,0.1,0.3,0.3,0.3
			h21.6c0.2,0,0.3-0.1,0.3-0.3c0.4-3.6,0.4-7.2,0.1-11.1C307.8,209.6,305.9,204.8,305.5,204z M517.4,227.5V204
			c0-0.2-0.1-0.3-0.3-0.3l-0.5,0c-0.1,0-0.1,0-0.2,0.1l-21.5,15.1c-0.2,0.1-0.5,0-0.5-0.2v-14.7c0-0.2-0.1-0.3-0.3-0.3h-37.5
			c-0.2,0-0.3,0.1-0.3,0.3v20.2c0,0.2,0.1,0.3,0.3,0.3h29c0.3,0,0.4,0.4,0.2,0.6l-30.2,20.4c-0.1,0.1-0.1,0.2-0.1,0.3v23.6
			c0,0.2,0.1,0.3,0.3,0.3l1.2,0c0.1,0,0.1,0,0.2-0.1l23.9-17.1c0.2-0.1,0.5,0,0.5,0.2v16.4c0,0.2,0.1,0.3,0.3,0.3h37.5
			c0.2,0,0.3-0.1,0.3-0.3v-19.9c0-0.2-0.1-0.3-0.3-0.3h-32.2c-0.3,0-0.4-0.4-0.2-0.6l30.4-20.6C517.4,227.7,517.4,227.6,517.4,227.5
			z M409.9,204l5.7,15.8c0.1,0.2-0.1,0.4-0.3,0.4h-11.5c-0.1,0-0.2,0.1-0.3,0.2l-16.6,44.7c-0.1,0.2-0.4,0.3-0.5,0.1l-20.4-27.6
			c-0.1-0.1-0.1-0.4,0.1-0.4c0,0,4.2-2.4,8.2-4.6c3.6-2,5.7-6.3,5.9-9.4c0.1-2.6,0.1-4.8-0.5-8.4c0-0.1,0-0.1,0-0.2
			c-1-6.4-6.6-11-13-11h-46.7c-0.2,0-0.3,0.1-0.3,0.3v7.6c0,0.2,0.1,0.3,0.3,0.3h15.8c0.3,0,0.4,0.4,0.2,0.6l-16.1,9.8
			c-0.1,0.1-0.1,0.2-0.1,0.3v46.8c0,0.2,0.1,0.3,0.3,0.3h22.4c0.2,0,0.3-0.1,0.3-0.3V250v-10v-27.9c0-0.2,0.1-0.3,0.3-0.3h11.5
			c0.1,0,0.2,0.1,0.3,0.2c0.3,1,1.9,5.7,2.3,9.7c0.5,4.2-0.2,9.3-0.4,10.2c0,0.1-0.1,0.2-0.2,0.2l-9.1,5.1c-0.1,0.1-0.2,0.2-0.2,0.3
			v9.8l0,0l14.3,22c0.1,0.1,0.2,0.1,0.3,0.1h37.2c0.1,0,0.2-0.1,0.3-0.2l2.8-7.5c0-0.1,0.2-0.2,0.3-0.2h27c0.1,0,0.2,0.1,0.3,0.2
			l2.5,7.5c0,0.1,0.2,0.2,0.3,0.2H455c0.2,0,0.4-0.2,0.3-0.4l-22-65.4c0-0.1-0.2-0.2-0.3-0.2h-22.8C410,203.6,409.8,203.8,409.9,204
			z M405.9,252.1l10.5-28.2c0.1-0.3,0.5-0.3,0.6,0l9.5,28.2c0.1,0.2-0.1,0.4-0.3,0.4h-20C406,252.5,405.8,252.3,405.9,252.1z
			 M568.1,203.9c-1.3,8.1-4,17.1-7.2,25.8c-0.1,0.2-0.4,0.3-0.5,0.1c-1.5-2.3-3.9-6.1-6.2-10.7c-2.2-4.6-5.9-13.8-6.5-15.2
			c0-0.1-0.2-0.2-0.3-0.2h-24.6c-0.2,0-0.3,0.2-0.3,0.4c1.7,7.8,3.7,13.2,5.6,18.2c1.9,5,3.7,9,5.3,12.1c1.3,2.6,4,4.3,6.9,4.3H557
			c0.2,0,0.4,0.2,0.3,0.4c-6.2,15-12.9,27.5-14.2,29.9c-0.1,0.2,0,0.4,0.3,0.4h29.3c0.1,0,0.2-0.1,0.3-0.2
			c0.9-1.9,8.9-18.9,13.4-32.1c4.4-12.8,9.3-30.4,10.1-33.2c0.1-0.2-0.1-0.4-0.3-0.4h-27.7C568.2,203.7,568.1,203.8,568.1,203.9z"/>
		<path fill="#F0830D" d="M437.2,279.9c-7.1-1.7-15.3-2.3-23.2-2.4c-1.8,0-8.4,0-9.9,0c-8.2,0-16.8,0.6-24.2,2.4
			c-16.4,3.9-21,20.6-22,27.4c-0.9,6.8-0.3,21.9,5.3,30.8c5,8,23,15.3,40.1,15.6c1.8,0,8.1,0,9.6,0c17.4-0.1,36-7.5,41.1-15.6
			c5.6-8.9,6.2-24,5.3-30.8C458.2,300.5,453.5,283.7,437.2,279.9z M439.1,299.6c-1,6.7-2.4,8.6-2.8,9c-0.1,0.1-0.1,0.1-0.2,0.1
			l-5.7,1.7c-0.4,0.1-0.5,0.6-0.2,0.8c4.6,5.1,6.3,10.9,6.7,12.4c-0.6,0.1-1.1,0.2-1.7,0.4c-13.7,3.5-20.5,13.6-23.9,21.8
			c-0.1,0.2-0.3,0.3-0.5,0.3h-2.9c-0.2,0-0.4-0.1-0.5-0.3c-3.4-8.2-10.3-18.2-23.9-21.8c-0.7-0.2-1.3-0.3-2-0.4
			c0.3-1.6,1.8-7.7,6.8-12.9l-0.3,0.1l-6.9-2.1c-0.1,0-0.2-0.1-0.2-0.1c-0.4-0.4-1.8-2.3-2.8-9c-1-6.5,1.6-11,2.6-12.4
			c0.2-0.2,0.5-0.3,0.7-0.1l19.9,16.2c0.1,0.1,0.3,0.1,0.4,0.1c2.3-0.5,4.8-0.8,7.6-0.8c2.4,0,4.6,0.2,6.6,0.6c0.1,0,0.3,0,0.4-0.1
			l19.7-16c0.2-0.2,0.6-0.1,0.7,0.1C437.5,288.6,440.1,293.1,439.1,299.6z M314.6,281h-25.3c-0.3,0-0.5,0.2-0.5,0.5v65.4
			c0,0.3,0.2,0.5,0.5,0.5h24.8c0.3,0,0.5-0.2,0.5-0.5v-19.6c0-0.3,0.2-0.5,0.5-0.5h19.4c0.3,0,0.5-0.2,0.5-0.5v-11.6
			c0-0.3-0.2-0.5-0.5-0.5h-19.4c-0.3,0-0.5-0.2-0.5-0.5v-13.8c0-0.3,0.2-0.5,0.5-0.5h29.5c0.3,0,0.5-0.2,0.5-0.5v-17.2
			c0-0.3-0.2-0.5-0.5-0.5L314.6,281L314.6,281z M549.3,281h-29.7c-0.2,0-0.3,0.1-0.4,0.2L509.1,294c-0.2,0.3-0.6,0.3-0.8,0
			l-10.1-12.8c-0.1-0.1-0.2-0.2-0.4-0.2h-29.7c-0.4,0-0.7,0.5-0.4,0.8l25.3,32c0.1,0.2,0.1,0.4,0,0.6l-25.3,32
			c-0.3,0.3,0,0.8,0.4,0.8h29.7c0.2,0,0.3-0.1,0.4-0.2l10.1-12.8c0.2-0.3,0.6-0.3,0.8,0l10.1,12.8c0.1,0.1,0.2,0.2,0.4,0.2h29.7
			c0.4,0,0.7-0.5,0.4-0.8l-25.3-32c-0.1-0.2-0.1-0.4,0-0.6l25.3-32C550,281.5,549.8,281,549.3,281z"/>
		<path fill="#FFFFFF" d="M405,319.7h-2.2c-1,0-1.9-0.8-1.9-1.9v-2.2h-1.5v2.2c0,1-0.8,1.9-1.9,1.9h-2.2v1.5h2.2
			c1,0,1.9,0.8,1.9,1.9v2.2h1.5v-2.2c0-1,0.8-1.9,1.9-1.9h2.2V319.7z"/>
		<path fill="#FFFFFF" d="M421.6,319.7h-2.2c-1,0-1.9-0.8-1.9-1.9v-2.2H416v2.2c0,1-0.8,1.9-1.9,1.9H412v1.5h2.2
			c1,0,1.9,0.8,1.9,1.9v2.2h1.5v-2.2c0-1,0.8-1.9,1.9-1.9h2.2V319.7z"/>
	</g>
</g>
</svg>
