<svg xmlns="http://www.w3.org/2000/svg" width="202.396" height="47.753" viewBox="0 0 202.396 47.753"><g transform="translate(0 0)"><g transform="translate(0 1.777)" style="isolation:isolate"><g transform="translate(0 0)" style="isolation:isolate"><path d="M-1172.136,728.733q-1.811-.617-3.29-1.254a10.072,10.072,0,0,1-2.55-1.542,6.387,6.387,0,0,1-1.667-2.159,7.106,7.106,0,0,1-.6-3.063,6.734,6.734,0,0,1,2.694-5.593q2.693-2.1,7.546-2.1a20.684,20.684,0,0,1,3.29.247,9.827,9.827,0,0,1,2.611.761,4.556,4.556,0,0,1,1.707,1.316,2.982,2.982,0,0,1,.617,1.871,3.289,3.289,0,0,1-.493,1.83,5.138,5.138,0,0,1-1.193,1.3,9.353,9.353,0,0,0-2.426-1.007,12.178,12.178,0,0,0-3.331-.432,5.5,5.5,0,0,0-2.715.515,1.5,1.5,0,0,0-.863,1.294,1.2,1.2,0,0,0,.534,1.009,5.58,5.58,0,0,0,1.6.72l2.179.7a15.8,15.8,0,0,1,5.943,3.146,6.73,6.73,0,0,1,2.076,5.2,6.851,6.851,0,0,1-2.755,5.656q-2.754,2.159-8.1,2.159a18.865,18.865,0,0,1-3.516-.31,11.127,11.127,0,0,1-2.838-.9,5.244,5.244,0,0,1-1.892-1.482,3.25,3.25,0,0,1-.679-2.034,3.083,3.083,0,0,1,.7-2.035,5.348,5.348,0,0,1,1.521-1.3,11.151,11.151,0,0,0,2.818,1.563,9.8,9.8,0,0,0,3.639.658,4.874,4.874,0,0,0,2.837-.616,1.779,1.779,0,0,0,.823-1.439,1.407,1.407,0,0,0-.658-1.253,8.53,8.53,0,0,0-1.85-.844Z" transform="translate(1180.238 -713.024)" fill="#ffb100"/><path d="M-1152.762,714.441a8.764,8.764,0,0,1,2.118-.781,11.3,11.3,0,0,1,2.858-.37,10.326,10.326,0,0,1,3.639.6,3.17,3.17,0,0,1,2.035,1.871q.741,2.139,1.6,4.976t1.729,5.86q.864,3.023,1.686,5.963t1.439,5.2a3.389,3.389,0,0,1-1.48.926,7.059,7.059,0,0,1-2.344.35,7.236,7.236,0,0,1-1.667-.165,2.972,2.972,0,0,1-1.109-.492,2.42,2.42,0,0,1-.7-.865,7.3,7.3,0,0,1-.473-1.234l-.741-2.837h-7.443q-.331,1.234-.658,2.551t-.658,2.548a10.559,10.559,0,0,1-1.213.349,7.093,7.093,0,0,1-1.542.144,5.377,5.377,0,0,1-3.1-.72,2.313,2.313,0,0,1-1.008-1.994,4.167,4.167,0,0,1,.164-1.151c.11-.384.232-.837.371-1.357q.287-1.111.8-2.755t1.131-3.557q.619-1.912,1.317-3.927t1.316-3.8q.617-1.789,1.131-3.187T-1152.762,714.441Zm4.935,5.305q-.577,1.727-1.3,3.846t-1.294,4.3h5.1q-.575-2.22-1.172-4.338t-1.09-3.8Z" transform="translate(1181.918 -713.002)" fill="#ffb100"/><path d="M-1120.815,737.777a5.059,5.059,0,0,1-1.789.864,9.059,9.059,0,0,1-2.653.37,7.691,7.691,0,0,1-2.96-.513,3.107,3.107,0,0,1-1.686-1.42q-.452-.945-1.11-2.447t-1.378-3.35q-.719-1.852-1.48-3.927t-1.46-4.216q-.7-2.136-1.317-4.195t-1.068-3.865a5.365,5.365,0,0,1,1.665-1.049,5.777,5.777,0,0,1,2.324-.472,4.434,4.434,0,0,1,2.488.637,3.872,3.872,0,0,1,1.419,2.364q1.111,4.03,2.241,7.71t2.364,7.669h.246q1.112-3.865,2.284-8.43t2.241-9.088a9.554,9.554,0,0,1,1.583-.617,6.812,6.812,0,0,1,1.912-.246,4.737,4.737,0,0,1,2.59.679,2.45,2.45,0,0,1,1.068,2.24,11.84,11.84,0,0,1-.43,2.633q-.432,1.725-1.11,3.885t-1.521,4.5q-.843,2.344-1.686,4.42t-1.583,3.66A14.406,14.406,0,0,1-1120.815,737.777Z" transform="translate(1183.688 -712.98)" fill="#ffb100"/><path d="M-1107.5,714.441a8.767,8.767,0,0,1,2.118-.781,11.3,11.3,0,0,1,2.858-.37,10.333,10.333,0,0,1,3.64.6,3.177,3.177,0,0,1,2.035,1.871q.74,2.139,1.6,4.976t1.728,5.86q.863,3.023,1.684,5.963t1.44,5.2a3.383,3.383,0,0,1-1.481.926,7.047,7.047,0,0,1-2.344.35,7.229,7.229,0,0,1-1.665-.165,2.966,2.966,0,0,1-1.109-.492,2.432,2.432,0,0,1-.7-.865,7.322,7.322,0,0,1-.472-1.234l-.741-2.837h-7.443q-.329,1.234-.657,2.551t-.658,2.548a10.492,10.492,0,0,1-1.215.349,7.06,7.06,0,0,1-1.541.144,5.376,5.376,0,0,1-3.1-.72,2.309,2.309,0,0,1-1.008-1.994,4.2,4.2,0,0,1,.164-1.151c.11-.384.233-.837.371-1.357q.287-1.111.8-2.755t1.13-3.557q.619-1.912,1.317-3.927t1.316-3.8q.617-1.789,1.131-3.187T-1107.5,714.441Zm4.934,5.305q-.575,1.727-1.3,3.846t-1.294,4.3h5.1q-.576-2.22-1.172-4.338t-1.09-3.8Z" transform="translate(1185.569 -713.002)" fill="#ffb100"/><path d="M-1081.96,730.583v7.9a11.456,11.456,0,0,1-1.417.247,14.908,14.908,0,0,1-1.913.125,8.539,8.539,0,0,1-1.666-.145,2.782,2.782,0,0,1-1.192-.514,2.289,2.289,0,0,1-.72-1.028,5.016,5.016,0,0,1-.245-1.727V716.067a1.8,1.8,0,0,1,.472-1.335,3.393,3.393,0,0,1,1.3-.762,15.522,15.522,0,0,1,3.248-.72,32.939,32.939,0,0,1,3.948-.226q5.676,0,8.553,2.386a7.943,7.943,0,0,1,2.879,6.455,7.219,7.219,0,0,1-1.316,4.36,9.478,9.478,0,0,1-3.126,2.8q1.481,2.014,2.92,3.782a24.321,24.321,0,0,1,2.262,3.209,3.877,3.877,0,0,1-1.5,2.2,4.173,4.173,0,0,1-2.446.76,5.332,5.332,0,0,1-1.564-.2,3.782,3.782,0,0,1-1.15-.577,4.678,4.678,0,0,1-.906-.9,12.383,12.383,0,0,1-.782-1.151l-3.453-5.552Zm2.592-5.469a3.588,3.588,0,0,0,2.466-.8,2.991,2.991,0,0,0,.9-2.364,2.846,2.846,0,0,0-1.007-2.366,5.114,5.114,0,0,0-3.187-.8,9.443,9.443,0,0,0-.986.04c-.248.028-.523.068-.823.123v6.168Z" transform="translate(1187.633 -713.024)" fill="#ffb100"/><path d="M-1016.987,737.755a3.759,3.759,0,0,1-1.665.884,9.684,9.684,0,0,1-2.611.308,9.059,9.059,0,0,1-2.879-.452,3.983,3.983,0,0,1-2.221-2.179l-4.071-8.305q-.617-1.276-1.11-2.407t-1.069-2.611l-.247.041q.164,2.221.185,4.525t.021,4.523v6.374a11.477,11.477,0,0,1-1.378.247,13.676,13.676,0,0,1-1.83.124,9.22,9.22,0,0,1-1.6-.124,2.45,2.45,0,0,1-1.15-.493,2.37,2.37,0,0,1-.7-1.007,4.693,4.693,0,0,1-.247-1.665V714.974a3.443,3.443,0,0,1,1.768-1.235,7.775,7.775,0,0,1,2.55-.411,8.888,8.888,0,0,1,2.9.474,3.929,3.929,0,0,1,2.2,2.158l4.112,8.308q.617,1.274,1.11,2.4t1.069,2.611l.206-.041q-.164-2.221-.206-4.44t-.041-4.442V713.7a11.851,11.851,0,0,1,1.378-.247,13.853,13.853,0,0,1,1.83-.123,4.928,4.928,0,0,1,2.755.637q.947.639.946,2.652Z" transform="translate(1191.626 -712.999)" fill="#ffb100"/><path d="M-1008.325,714.441a8.745,8.745,0,0,1,2.118-.781,11.3,11.3,0,0,1,2.857-.37,10.33,10.33,0,0,1,3.64.6,3.173,3.173,0,0,1,2.035,1.871q.74,2.139,1.6,4.976t1.728,5.86q.864,3.023,1.685,5.963t1.44,5.2a3.381,3.381,0,0,1-1.48.926,7.045,7.045,0,0,1-2.344.35,7.229,7.229,0,0,1-1.665-.165,2.961,2.961,0,0,1-1.109-.492,2.427,2.427,0,0,1-.7-.865,7.317,7.317,0,0,1-.471-1.234l-.742-2.837h-7.443q-.329,1.234-.657,2.551t-.659,2.548a10.412,10.412,0,0,1-1.213.349,7.071,7.071,0,0,1-1.542.144,5.379,5.379,0,0,1-3.1-.72,2.312,2.312,0,0,1-1.007-1.994,4.156,4.156,0,0,1,.164-1.151c.11-.384.232-.837.371-1.357q.285-1.111.8-2.755t1.13-3.557q.619-1.912,1.317-3.927t1.315-3.8q.617-1.789,1.131-3.187T-1008.325,714.441Zm4.934,5.305q-.575,1.727-1.3,3.846t-1.294,4.3h5.1q-.578-2.22-1.172-4.338t-1.09-3.8Z" transform="translate(1193.615 -713.002)" fill="#ffb100"/></g></g><g transform="translate(69.581 31.996)" style="isolation:isolate"><g transform="translate(0 0)" style="isolation:isolate"><path d="M-1105.327,612.6a3.073,3.073,0,0,0-1.028.173,2.364,2.364,0,0,0-.844.509,2.477,2.477,0,0,0-.573.832,2.9,2.9,0,0,0-.217,1.169,2.53,2.53,0,0,0,.767,2.014,2.752,2.752,0,0,0,1.873.671,3.747,3.747,0,0,0,1.126-.152,6.776,6.776,0,0,0,.843-.326,2.276,2.276,0,0,1,.651.661,1.615,1.615,0,0,1,.217.855,1.515,1.515,0,0,1-.844,1.373,4.69,4.69,0,0,1-2.338.488,7.2,7.2,0,0,1-2.468-.4,5.568,5.568,0,0,1-1.894-1.125,4.979,4.979,0,0,1-1.222-1.741,5.706,5.706,0,0,1-.432-2.251,6.234,6.234,0,0,1,.465-2.5,4.844,4.844,0,0,1,1.266-1.764,5.364,5.364,0,0,1,1.851-1.038,7.037,7.037,0,0,1,2.217-.346,4.318,4.318,0,0,1,2.4.563,1.682,1.682,0,0,1,.843,1.45,1.578,1.578,0,0,1-.194.768,2.689,2.689,0,0,1-.454.617,7.177,7.177,0,0,0-.888-.336A3.787,3.787,0,0,0-1105.327,612.6Z" transform="translate(1111.711 -605.156)" fill="#ffb100"/><path d="M-1097.144,609.7a8.854,8.854,0,0,1,2.132.238,4.751,4.751,0,0,1,1.646.725,3.281,3.281,0,0,1,1.049,1.233,3.95,3.95,0,0,1,.368,1.764v4.849a1.337,1.337,0,0,1-.314.919,3.1,3.1,0,0,1-.746.618,7.749,7.749,0,0,1-3.962.844,9.057,9.057,0,0,1-2.067-.216,4.881,4.881,0,0,1-1.58-.651,2.968,2.968,0,0,1-1.016-1.1,3.26,3.26,0,0,1-.357-1.559,2.928,2.928,0,0,1,.886-2.293,4.8,4.8,0,0,1,2.749-1l2.836-.3v-.153a.93.93,0,0,0-.551-.9,3.728,3.728,0,0,0-1.591-.271,7.424,7.424,0,0,0-1.6.173,8.588,8.588,0,0,0-1.405.434,1.494,1.494,0,0,1-.478-.6,1.9,1.9,0,0,1-.194-.835,1.391,1.391,0,0,1,.27-.9,2.105,2.105,0,0,1,.835-.572,6.489,6.489,0,0,1,1.481-.346A12.818,12.818,0,0,1-1097.144,609.7Zm.173,8.506a4.831,4.831,0,0,0,.811-.077,1.973,1.973,0,0,0,.661-.2v-1.732l-1.559.129a2.439,2.439,0,0,0-1,.261.7.7,0,0,0-.39.649.862.862,0,0,0,.337.7A1.834,1.834,0,0,0-1096.971,618.207Z" transform="translate(1112.51 -605.156)" fill="#ffb100"/><path d="M-1081.738,617.407a3.048,3.048,0,0,1-1.233,2.577,5.991,5.991,0,0,1-3.637.931,10.137,10.137,0,0,1-1.687-.131,4.811,4.811,0,0,1-1.332-.4,2.363,2.363,0,0,1-.865-.682,1.548,1.548,0,0,1-.315-.973,1.669,1.669,0,0,1,.217-.878,2.175,2.175,0,0,1,.519-.594,8.6,8.6,0,0,0,1.439.617,5.914,5.914,0,0,0,1.873.27,2.182,2.182,0,0,0,1.027-.2.579.579,0,0,0,.357-.518.547.547,0,0,0-.259-.477,2.434,2.434,0,0,0-.867-.28l-.649-.13a6.07,6.07,0,0,1-2.8-1.158,2.815,2.815,0,0,1-.921-2.263,3.038,3.038,0,0,1,.346-1.449,3.037,3.037,0,0,1,.975-1.082,4.89,4.89,0,0,1,1.5-.672,7.424,7.424,0,0,1,1.937-.237,9.092,9.092,0,0,1,1.5.119,4.922,4.922,0,0,1,1.224.357,2.236,2.236,0,0,1,.822.616,1.4,1.4,0,0,1,.3.9,1.853,1.853,0,0,1-.184.855,1.912,1.912,0,0,1-.465.594,2.786,2.786,0,0,0-.519-.227q-.347-.119-.757-.216c-.275-.065-.552-.119-.834-.162a5.113,5.113,0,0,0-.769-.066,2.971,2.971,0,0,0-1.1.163.536.536,0,0,0-.39.508.459.459,0,0,0,.216.391,2.5,2.5,0,0,0,.823.28l.671.153a6.373,6.373,0,0,1,2.956,1.309A2.837,2.837,0,0,1-1081.738,617.407Z" transform="translate(1113.424 -605.157)" fill="#ffb100"/><path d="M-1080.872,607.449a1.9,1.9,0,0,1,.553-1.385,1.95,1.95,0,0,1,1.459-.563,1.953,1.953,0,0,1,1.461.563,1.9,1.9,0,0,1,.553,1.385,1.9,1.9,0,0,1-.553,1.385,1.953,1.953,0,0,1-1.461.563,1.949,1.949,0,0,1-1.459-.563A1.9,1.9,0,0,1-1080.872,607.449Zm3.852,13.419c-.159.029-.393.068-.7.119a5.959,5.959,0,0,1-.941.076,5.078,5.078,0,0,1-.855-.066,1.458,1.458,0,0,1-.639-.259,1.254,1.254,0,0,1-.4-.53,2.3,2.3,0,0,1-.141-.878v-8.808c.16-.029.393-.069.7-.12a5.931,5.931,0,0,1,.943-.075,5,5,0,0,1,.855.065,1.466,1.466,0,0,1,.637.26,1.237,1.237,0,0,1,.4.53,2.313,2.313,0,0,1,.14.877Z" transform="translate(1114.245 -605.501)" fill="#ffb100"/><path d="M-1068.485,613.878a1.206,1.206,0,0,0-.38-.986,1.568,1.568,0,0,0-1.028-.314,3.461,3.461,0,0,0-.855.109,2.149,2.149,0,0,0-.725.324v7.51a5.261,5.261,0,0,1-.682.129,6.968,6.968,0,0,1-.962.066,5.111,5.111,0,0,1-.857-.066,1.451,1.451,0,0,1-.637-.259,1.222,1.222,0,0,1-.4-.53,2.291,2.291,0,0,1-.141-.878v-6.493a1.678,1.678,0,0,1,.248-.953,2.661,2.661,0,0,1,.682-.671,6.226,6.226,0,0,1,1.85-.843,8.846,8.846,0,0,1,2.478-.325,5.837,5.837,0,0,1,3.766,1.07,3.621,3.621,0,0,1,1.321,2.976v6.776a5.291,5.291,0,0,1-.682.129,6.955,6.955,0,0,1-.962.066,5.067,5.067,0,0,1-.855-.066,1.443,1.443,0,0,1-.638-.259,1.24,1.24,0,0,1-.4-.53,2.3,2.3,0,0,1-.141-.878Z" transform="translate(1114.716 -605.156)" fill="#ffb100"/><path d="M-1052.571,615.284a6.532,6.532,0,0,1-.411,2.392,4.843,4.843,0,0,1-1.158,1.765,4.925,4.925,0,0,1-1.786,1.082,6.892,6.892,0,0,1-2.316.368,6.547,6.547,0,0,1-2.316-.39,5.093,5.093,0,0,1-1.786-1.116,4.954,4.954,0,0,1-1.158-1.763,6.314,6.314,0,0,1-.411-2.339,6.241,6.241,0,0,1,.411-2.315,4.959,4.959,0,0,1,1.158-1.764,5.106,5.106,0,0,1,1.786-1.115,6.525,6.525,0,0,1,2.316-.39,6.416,6.416,0,0,1,2.316.4,5.251,5.251,0,0,1,1.786,1.126,5,5,0,0,1,1.158,1.764A6.213,6.213,0,0,1-1052.571,615.284Zm-7.575,0a3.417,3.417,0,0,0,.509,2.024,1.65,1.65,0,0,0,1.418.7,1.588,1.588,0,0,0,1.4-.714,3.552,3.552,0,0,0,.487-2.014,3.43,3.43,0,0,0-.5-2,1.622,1.622,0,0,0-1.407-.7,1.623,1.623,0,0,0-1.407.7A3.429,3.429,0,0,0-1060.146,615.284Z" transform="translate(1115.639 -605.156)" fill="#ffb100"/></g></g><g transform="translate(120.046)"><path d="M121.611,112.989a8.622,8.622,0,1,0,8.622,8.622A8.632,8.632,0,0,0,121.611,112.989Zm.9,1.869a6.778,6.778,0,0,1,3.175,1.3l-2.155,2.128a3.818,3.818,0,0,0-1.02-.41Zm-1.809,0v3.018a3.82,3.82,0,0,0-1.019.41l-2.155-2.128A6.78,6.78,0,0,1,120.706,114.858Zm-4.467,2.566,2.138,2.111a3.822,3.822,0,0,0-.5,1.172h-3.018A6.781,6.781,0,0,1,116.24,117.423Zm-1.383,5.092h3.018a3.823,3.823,0,0,0,.5,1.172L116.24,125.8A6.783,6.783,0,0,1,114.857,122.516Zm5.849,5.849a6.778,6.778,0,0,1-3.175-1.3l2.155-2.128a3.821,3.821,0,0,0,1.019.41Zm-1.131-6.754a2.036,2.036,0,1,1,2.036,2.036A2.038,2.038,0,0,1,119.575,121.611Zm2.94,6.754v-3.018a3.819,3.819,0,0,0,1.02-.41l2.155,2.128A6.78,6.78,0,0,1,122.515,128.365Zm4.467-2.566-2.138-2.111a3.822,3.822,0,0,0,.5-1.172h3.018A6.781,6.781,0,0,1,126.981,125.8Zm-1.635-5.092a3.823,3.823,0,0,0-.5-1.172l2.138-2.111a6.782,6.782,0,0,1,1.383,3.284Z" transform="translate(-106.176 -106.177)" fill="#ffb100"/><path d="M30.87,16.339V14.53H27.882a12.429,12.429,0,0,0-3.031-7.278l3.76-3.715L27.34,2.251,23.568,5.977a12.427,12.427,0,0,0-7.229-2.989V0H14.53V2.987A12.427,12.427,0,0,0,7.3,5.977L3.53,2.251,2.258,3.537l3.76,3.715A12.429,12.429,0,0,0,2.987,14.53H0v1.809H2.987a12.429,12.429,0,0,0,3.031,7.278l-3.76,3.715L3.53,28.619,7.3,24.893a12.427,12.427,0,0,0,7.229,2.989V30.87h1.809V27.882a12.427,12.427,0,0,0,7.229-2.989l3.772,3.726,1.271-1.287-3.76-3.715a12.429,12.429,0,0,0,3.031-7.278ZM15.435,26.106A10.672,10.672,0,1,1,26.106,15.435,10.684,10.684,0,0,1,15.435,26.106Z" transform="translate(0)" fill="#ffb100"/></g></g></svg>