<?xml version="1.0" encoding="UTF-8"?>
<svg width="60px" height="40px" viewBox="0 0 60 40" version="1.1" xmlns="http://www.w3.org/2000/svg" xmlns:xlink="http://www.w3.org/1999/xlink">
    <!-- Generator: Sketch 49.1 (51147) - http://www.bohemiancoding.com/sketch -->
    <title>ko</title>
    <desc>Created with Sketch.</desc>
    <defs>
        <path d="M15.426,7.999 C15.426,9.856 12.101,14.497 8,14.497 C3.899,14.497 0.574,9.856 0.574,7.999 C0.574,3.898 3.899,0.573 8,0.573 C12.101,0.573 15.426,3.898 15.426,7.999 Z" id="path-1"></path>
        <path d="M15.426,0.999 C15.426,5.101 12.101,8.425 8,8.425 C3.899,8.425 0.574,5.101 0.574,0.999 L15.426,0.999 Z" id="path-3"></path>
        <polyline id="path-5" points="0.877 2.564 2.846 0.595 4.159 1.908 2.19 3.877"></polyline>
        <polyline id="path-7" points="0.595 2.845 2.564 0.876 3.877 2.188 1.907 4.157"></polyline>
        <polyline id="path-9" points="0.815 2.5 2.784 0.531 4.097 1.844 2.128 3.813"></polyline>
        <polyline id="path-11" points="0.533 2.783 2.502 0.814 3.815 2.127 1.846 4.096"></polyline>
        <polyline id="path-13" points="0.846 2.532 2.815 0.563 4.128 1.876 2.159 3.845"></polyline>
        <polyline id="path-15" points="0.564 2.814 2.533 0.845 3.846 2.157 1.877 4.127"></polyline>
        <polyline id="path-17" points="5.816 7.435 0.565 2.184 1.878 0.871 7.129 6.122"></polyline>
        <polyline id="path-19" points="2.564 4.123 0.595 2.153 1.908 0.841 3.877 2.81"></polyline>
        <polyline id="path-21" points="2.845 3.405 0.876 1.436 2.189 0.123 4.158 2.092"></polyline>
        <polyline id="path-23" points="2.5 4.184 0.531 2.215 1.844 0.902 3.813 2.872"></polyline>
        <polyline id="path-25" points="2.784 3.466 0.815 1.497 2.127 0.185 4.097 2.154"></polyline>
        <polyline id="path-27" points="2.217 0.532 7.468 5.783 6.155 7.095 0.904 1.844"></polyline>
        <polyline id="path-29" points="1.466 0.845 3.435 2.814 2.122 4.127 0.153 2.158"></polyline>
        <polyline id="path-31" points="2.185 0.563 4.154 2.532 2.841 3.845 0.872 1.876"></polyline>
        <polyline id="path-33" points="2.155 0.595 7.405 5.845 6.093 7.158 0.842 1.907"></polyline>
        <polyline id="path-35" points="7.468 2.214 2.217 7.465 0.904 6.152 6.155 0.901"></polyline>
        <polyline id="path-37" points="7.435 2.184 2.184 7.435 0.871 6.122 6.122 0.871"></polyline>
        <polyline id="path-39" points="7.404 2.153 2.153 7.404 0.84 6.092 6.091 0.841"></polyline>
    </defs>
    <g id="Symbols" stroke="none" stroke-width="1" fill="none" fill-rule="evenodd">
        <g id="ko">
            <polygon id="Fill-1" fill="#FFFFFF" fill-rule="nonzero" points="0 40 60 40 60 0.04 0 0.04"></polygon>
            <g id="Group-5" transform="translate(22.000000, 12.000000)">
                <g id="Fill-3-Clipped">
                    <mask id="mask-2" fill="white">
                        <use xlink:href="#path-1"></use>
                    </mask>
                    <g id="path-1"></g>
                    <polygon id="Fill-3" fill="#D70027" fill-rule="nonzero" mask="url(#mask-2)" points="0.56 14.56 15.44 14.56 15.44 0.52 0.56 0.52"></polygon>
                </g>
            </g>
            <g id="Group-8" transform="translate(22.000000, 19.000000)">
                <g id="Fill-6-Clipped">
                    <mask id="mask-4" fill="white">
                        <use xlink:href="#path-3"></use>
                    </mask>
                    <g id="path-3"></g>
                    <polygon id="Fill-6" fill="#0057B4" fill-rule="nonzero" mask="url(#mask-4)" points="0.56 8.52 15.44 8.52 15.44 0.96 0.56 0.96"></polygon>
                </g>
            </g>
            <g id="Group-11" transform="translate(37.000000, 24.000000)">
                <g id="Fill-9-Clipped">
                    <mask id="mask-6" fill="white">
                        <use xlink:href="#path-5"></use>
                    </mask>
                    <g id="path-5"></g>
                    <polyline id="Fill-9" fill="#000000" fill-rule="nonzero" mask="url(#mask-6)" points="-6.194 2.564 2.846 -6.476 11.23 1.908 2.19 10.948"></polyline>
                </g>
            </g>
            <g id="Group-14" transform="translate(34.000000, 27.000000)">
                <g id="Fill-12-Clipped">
                    <mask id="mask-8" fill="white">
                        <use xlink:href="#path-7"></use>
                    </mask>
                    <g id="path-7"></g>
                    <polyline id="Fill-12" fill="#000000" fill-rule="nonzero" mask="url(#mask-8)" points="-6.476 2.845 2.564 -6.196 10.948 2.188 1.907 11.228"></polyline>
                </g>
            </g>
            <g id="Group-17" transform="translate(41.000000, 28.000000)">
                <g id="Fill-15-Clipped">
                    <mask id="mask-10" fill="white">
                        <use xlink:href="#path-9"></use>
                    </mask>
                    <g id="path-9"></g>
                    <polyline id="Fill-15" fill="#000000" fill-rule="nonzero" mask="url(#mask-10)" points="-6.256 2.5 2.784 -6.54 11.168 1.844 2.128 10.884"></polyline>
                </g>
            </g>
            <g id="Group-20" transform="translate(38.000000, 31.000000)">
                <g id="Fill-18-Clipped">
                    <mask id="mask-12" fill="white">
                        <use xlink:href="#path-11"></use>
                    </mask>
                    <g id="path-11"></g>
                    <polyline id="Fill-18" fill="#000000" fill-rule="nonzero" mask="url(#mask-12)" points="-6.538 2.783 2.502 -6.257 10.886 2.127 1.846 11.167"></polyline>
                </g>
            </g>
            <g id="Group-23" transform="translate(39.000000, 26.000000)">
                <g id="Fill-21-Clipped">
                    <mask id="mask-14" fill="white">
                        <use xlink:href="#path-13"></use>
                    </mask>
                    <g id="path-13"></g>
                    <polyline id="Fill-21" fill="#000000" fill-rule="nonzero" mask="url(#mask-14)" points="-6.225 2.532 2.815 -6.508 11.199 1.876 2.159 10.916"></polyline>
                </g>
            </g>
            <g id="Group-26" transform="translate(36.000000, 29.000000)">
                <g id="Fill-24-Clipped">
                    <mask id="mask-16" fill="white">
                        <use xlink:href="#path-15"></use>
                    </mask>
                    <g id="path-15"></g>
                    <polyline id="Fill-24" fill="#000000" fill-rule="nonzero" mask="url(#mask-16)" points="-6.507 2.814 2.533 -6.226 10.917 2.157 1.877 11.198"></polyline>
                </g>
            </g>
            <g id="Group-29" transform="translate(36.000000, 6.000000)">
                <g id="Fill-27-Clipped">
                    <mask id="mask-18" fill="white">
                        <use xlink:href="#path-17"></use>
                    </mask>
                    <g id="path-17"></g>
                    <polyline id="Fill-27" fill="#000000" fill-rule="nonzero" mask="url(#mask-18)" points="5.816 14.506 -6.506 2.184 1.878 -6.2 14.2 6.122"></polyline>
                </g>
            </g>
            <g id="Group-32" transform="translate(34.000000, 8.000000)">
                <g id="Fill-30-Clipped">
                    <mask id="mask-20" fill="white">
                        <use xlink:href="#path-19"></use>
                    </mask>
                    <g id="path-19"></g>
                    <polyline id="Fill-30" fill="#000000" fill-rule="nonzero" mask="url(#mask-20)" points="2.564 11.194 -6.476 2.153 1.908 -6.23 10.948 2.81"></polyline>
                </g>
            </g>
            <g id="Group-35" transform="translate(37.000000, 12.000000)">
                <g id="Fill-33-Clipped">
                    <mask id="mask-22" fill="white">
                        <use xlink:href="#path-21"></use>
                    </mask>
                    <g id="path-21"></g>
                    <polyline id="Fill-33" fill="#000000" fill-rule="nonzero" mask="url(#mask-22)" points="2.845 10.476 -6.195 1.436 2.189 -6.948 11.229 2.092"></polyline>
                </g>
            </g>
            <g id="Group-38" transform="translate(38.000000, 4.000000)">
                <g id="Fill-36-Clipped">
                    <mask id="mask-24" fill="white">
                        <use xlink:href="#path-23"></use>
                    </mask>
                    <g id="path-23"></g>
                    <polyline id="Fill-36" fill="#000000" fill-rule="nonzero" mask="url(#mask-24)" points="2.5 11.255 -6.54 2.215 1.844 -6.169 10.884 2.872"></polyline>
                </g>
            </g>
            <g id="Group-41" transform="translate(41.000000, 8.000000)">
                <g id="Fill-39-Clipped">
                    <mask id="mask-26" fill="white">
                        <use xlink:href="#path-25"></use>
                    </mask>
                    <g id="path-25"></g>
                    <polyline id="Fill-39" fill="#000000" fill-rule="nonzero" mask="url(#mask-26)" points="2.784 10.538 -6.256 1.497 2.127 -6.886 11.168 2.154"></polyline>
                </g>
            </g>
            <g id="Group-44" transform="translate(14.000000, 28.000000)">
                <g id="Fill-42-Clipped">
                    <mask id="mask-28" fill="white">
                        <use xlink:href="#path-27"></use>
                    </mask>
                    <g id="path-27"></g>
                    <polyline id="Fill-42" fill="#000000" fill-rule="nonzero" mask="url(#mask-28)" points="2.217 -6.539 14.539 5.783 6.155 14.166 -6.167 1.844"></polyline>
                </g>
            </g>
            <g id="Group-47" transform="translate(20.000000, 29.000000)">
                <g id="Fill-45-Clipped">
                    <mask id="mask-30" fill="white">
                        <use xlink:href="#path-29"></use>
                    </mask>
                    <g id="path-29"></g>
                    <polyline id="Fill-45" fill="#000000" fill-rule="nonzero" mask="url(#mask-30)" points="1.466 -6.226 10.506 2.814 2.122 11.198 -6.918 2.158"></polyline>
                </g>
            </g>
            <g id="Group-50" transform="translate(16.000000, 26.000000)">
                <g id="Fill-48-Clipped">
                    <mask id="mask-32" fill="white">
                        <use xlink:href="#path-31"></use>
                    </mask>
                    <g id="path-31"></g>
                    <polyline id="Fill-48" fill="#000000" fill-rule="nonzero" mask="url(#mask-32)" points="2.185 -6.508 11.225 2.532 2.841 10.916 -6.199 1.876"></polyline>
                </g>
            </g>
            <g id="Group-53" transform="translate(18.000000, 24.000000)">
                <g id="Fill-51-Clipped">
                    <mask id="mask-34" fill="white">
                        <use xlink:href="#path-33"></use>
                    </mask>
                    <g id="path-33"></g>
                    <polyline id="Fill-51" fill="#000000" fill-rule="nonzero" mask="url(#mask-34)" points="2.155 -6.477 14.477 5.845 6.093 14.229 -6.229 1.907"></polyline>
                </g>
            </g>
            <g id="Group-56" transform="translate(14.000000, 4.000000)">
                <g id="Fill-54-Clipped">
                    <mask id="mask-36" fill="white">
                        <use xlink:href="#path-35"></use>
                    </mask>
                    <g id="path-35"></g>
                    <polyline id="Fill-54" fill="#000000" fill-rule="nonzero" mask="url(#mask-36)" points="14.539 2.214 2.217 14.536 -6.167 6.152 6.155 -6.17"></polyline>
                </g>
            </g>
            <g id="Group-59" transform="translate(16.000000, 6.000000)">
                <g id="Fill-57-Clipped">
                    <mask id="mask-38" fill="white">
                        <use xlink:href="#path-37"></use>
                    </mask>
                    <g id="path-37"></g>
                    <polyline id="Fill-57" fill="#000000" fill-rule="nonzero" mask="url(#mask-38)" points="14.506 2.184 2.184 14.506 -6.2 6.122 6.122 -6.2"></polyline>
                </g>
            </g>
            <g id="Group-62" transform="translate(18.000000, 8.000000)">
                <g id="Fill-60-Clipped">
                    <mask id="mask-40" fill="white">
                        <use xlink:href="#path-39"></use>
                    </mask>
                    <g id="path-39"></g>
                    <polyline id="Fill-60" fill="#000000" fill-rule="nonzero" mask="url(#mask-40)" points="14.475 2.153 2.153 14.475 -6.231 6.092 6.091 -6.23"></polyline>
                </g>
            </g>
        </g>
    </g>
</svg>